<?xml version="1.0" standalone="no"?>
<!DOCTYPE svg PUBLIC "-//W3C//DTD SVG 20010904//EN"
 "http://www.w3.org/TR/2001/REC-SVG-20010904/DTD/svg10.dtd">
<svg version="1.0" xmlns="http://www.w3.org/2000/svg"
 width="701.000000pt" height="356.000000pt" viewBox="0 0 701.000000 356.000000"
 preserveAspectRatio="xMidYMid meet">

<g transform="translate(0.000000,356.000000) scale(0.100000,-0.100000)"
fill="#000000" stroke="none">
<path d="M560 3104 c-74 -20 -133 -56 -208 -128 -106 -101 -153 -222 -206
-527 -60 -346 -80 -840 -43 -1064 47 -278 148 -450 314 -532 54 -26 66 -28
183 -28 120 0 128 1 193 32 80 38 173 122 210 191 46 84 59 168 51 317 -6 114
-4 136 11 166 18 36 103 129 118 129 5 0 7 -193 6 -435 -2 -288 1 -439 7 -445
15 -15 275 -24 294 -11 13 9 16 85 21 543 l7 532 23 19 c42 34 120 68 147 65
31 -4 32 -6 62 -178 61 -361 205 -584 410 -636 79 -20 211 -14 282 12 l47 18
73 -77 c86 -90 146 -121 263 -138 185 -25 452 41 620 156 21 14 41 25 44 25 4
0 32 -24 63 -54 110 -106 218 -144 357 -125 227 32 372 164 436 399 23 85 33
544 15 689 -15 118 -52 247 -92 322 -69 131 -214 231 -361 251 -138 18 -359
-28 -400 -84 l-21 -28 22 -102 c18 -83 27 -107 49 -126 29 -26 21 -27 180 9
88 19 108 21 143 10 55 -16 80 -43 80 -85 0 -59 -25 -78 -125 -92 -103 -15
-171 -46 -250 -112 -118 -99 -190 -251 -204 -433 -9 -111 -19 -133 -86 -179
-111 -76 -248 -120 -379 -120 -77 0 -79 1 -111 34 -38 41 -85 152 -85 202 0
53 49 99 115 108 93 12 150 28 194 53 98 56 163 137 217 268 25 62 28 83 28
180 1 103 -1 114 -31 178 -143 302 -554 367 -772 121 -52 -58 -96 -146 -112
-223 -16 -77 -6 -484 15 -616 9 -55 14 -105 12 -112 -3 -6 -34 -14 -69 -18
-51 -6 -72 -3 -102 11 -97 46 -167 260 -182 560 l-6 122 75 84 c123 138 166
254 154 413 -7 101 -40 170 -116 246 -61 61 -141 107 -235 134 -77 23 -215 16
-300 -14 -80 -29 -94 -25 -114 29 l-17 45 -94 -2 c-153 -3 -200 -11 -209 -36
-4 -12 -1 -114 6 -227 7 -113 14 -324 16 -470 l2 -264 -108 -72 c-176 -118
-255 -199 -315 -324 l-36 -75 -6 -180 c-6 -203 -11 -219 -76 -250 -146 -69
-238 114 -251 500 -13 369 55 870 139 1039 42 83 127 128 170 90 31 -29 22
-135 -20 -231 -18 -39 -29 -78 -26 -87 6 -15 104 -60 201 -91 49 -16 55 -16
77 -2 29 20 79 121 101 208 12 45 16 92 13 160 -3 86 -7 104 -38 163 -34 69
-104 142 -164 173 -83 43 -198 53 -296 27z m1303 -435 c70 -36 89 -85 59 -153
-26 -58 -100 -116 -246 -192 l-114 -59 -22 20 c-20 18 -21 26 -15 90 15 146
64 248 138 284 47 24 163 29 200 10z m1054 -492 c28 -31 33 -44 33 -87 0 -64
-33 -136 -71 -155 -54 -29 -155 -10 -178 33 -36 68 -31 163 12 211 31 34 55
41 116 37 48 -3 58 -7 88 -39z m1053 -445 c48 -47 60 -91 60 -217 0 -125 -12
-167 -59 -218 -34 -36 -44 -41 -95 -45 -56 -4 -57 -4 -95 36 -52 54 -75 140
-69 254 5 96 27 147 83 196 30 27 44 32 87 32 45 0 54 -4 88 -38z"/>
<path d="M5900 3111 c-115 -16 -130 -21 -135 -44 -5 -21 36 -255 49 -275 3 -6
19 -13 35 -17 16 -3 35 -13 42 -21 14 -17 32 -653 26 -934 -4 -207 -15 -255
-71 -315 -78 -82 -164 -49 -231 88 -19 40 -42 105 -50 145 -20 99 -45 304 -45
375 l0 59 74 79 c120 127 162 236 154 395 -4 67 -10 94 -36 147 -60 121 -197
222 -337 248 -78 15 -204 6 -284 -20 -73 -23 -97 -17 -107 27 -13 54 -18 55
-157 48 -139 -7 -153 -10 -161 -33 -4 -8 1 -149 10 -312 14 -247 15 -430 11
-1107 -5 -607 -3 -814 5 -822 8 -8 59 -12 150 -12 121 0 138 2 146 18 5 9 12
222 15 473 4 342 9 464 19 488 13 31 122 131 143 131 31 0 45 -29 65 -135 76
-405 212 -595 454 -636 250 -42 432 100 528 411 23 75 23 78 23 640 0 311 4
571 8 578 22 33 167 -12 237 -75 95 -85 130 -205 130 -443 0 -619 -256 -1117
-653 -1271 -43 -16 -124 -37 -180 -46 -56 -9 -108 -21 -115 -26 -9 -7 -12 -47
-10 -156 l3 -146 95 2 c243 4 518 131 711 328 133 135 220 268 308 470 156
360 207 906 115 1225 -53 181 -170 326 -325 400 -123 58 -193 71 -414 75 -104
2 -215 0 -245 -4z m-519 -415 c48 -32 59 -77 35 -139 -21 -56 -126 -159 -240
-236 -135 -91 -163 -83 -153 48 10 125 33 210 73 264 70 95 194 123 285 63z"/>
</g>
</svg>
